<?xml version="1.0" standalone="no"?>
<!DOCTYPE svg PUBLIC "-//W3C//DTD SVG 20010904//EN"
 "http://www.w3.org/TR/2001/REC-SVG-20010904/DTD/svg10.dtd">
<svg version="1.0" xmlns="http://www.w3.org/2000/svg"
 width="24.000000pt" height="24.000000pt" viewBox="0 0 24.000000 24.000000"
 preserveAspectRatio="xMidYMid meet">

<g transform="translate(0.000000,24.000000) scale(0.100000,-0.100000)"
fill="#000000" stroke="none">
<path d="M76 209 c-18 -14 -26 -30 -26 -50 0 -17 -7 -43 -15 -58 -8 -16 -11
-31 -8 -35 8 -8 178 -8 186 0 3 4 0 19 -8 35 -8 15 -15 41 -15 57 0 33 -36 72
-67 72 -11 0 -32 -9 -47 -21z m76 -16 c10 -9 18 -26 18 -39 0 -12 4 -34 10
-48 l10 -26 -70 0 -70 0 10 26 c6 14 10 35 10 46 0 26 27 58 48 58 9 0 24 -7
34 -17z"/>
<path d="M93 25 c2 -5 14 -10 27 -10 13 0 25 5 27 10 2 6 -10 10 -27 10 -16 0
-28 -4 -27 -10z"/>
</g>
</svg>
