<svg width="301" height="301" viewBox="0 0 301 301" fill="none" xmlns="http://www.w3.org/2000/svg">
<path d="M31.7786 150.06H74.043C82.606 150.06 90.4341 154.898 94.2636 162.557C98.093 170.216 105.921 175.054 114.484 175.054H186.516C195.079 175.054 202.907 170.216 206.736 162.557C210.566 154.898 218.394 150.06 226.957 150.06H269.221M112.591 50.0843H188.409C201.866 50.0843 208.595 50.0843 214.536 52.1334C219.789 53.9454 224.574 56.9026 228.544 60.7911C233.034 65.1881 236.043 71.2067 242.062 83.2435L269.137 137.395C271.499 142.118 272.68 144.48 273.513 146.955C274.252 149.154 274.786 151.416 275.108 153.713C275.47 156.299 275.47 158.94 275.47 164.221V190.051C275.47 211.048 275.47 221.546 271.384 229.566C267.789 236.62 262.054 242.355 254.999 245.95C246.98 250.036 236.481 250.036 215.484 250.036H85.5157C64.5188 250.036 54.0203 250.036 46.0005 245.95C38.9462 242.355 33.2108 236.62 29.6164 229.566C25.5301 221.546 25.5301 211.048 25.5301 190.051V164.221C25.5301 158.94 25.5301 156.299 25.8922 153.713C26.2138 151.416 26.7478 149.154 27.4874 146.955C28.3202 144.48 29.5011 142.118 31.863 137.395L58.9385 83.2435C64.9569 71.2066 67.9662 65.1882 72.4556 60.7911C76.4257 56.9026 81.2106 53.9454 86.464 52.1334C92.4047 50.0843 99.1335 50.0843 112.591 50.0843Z" stroke="#C0C0C0" stroke-width="17.4561" stroke-linecap="round" stroke-linejoin="round"/>
</svg>
