<?xml version="1.0" standalone="no"?>
<!DOCTYPE svg PUBLIC "-//W3C//DTD SVG 20010904//EN"
 "http://www.w3.org/TR/2001/REC-SVG-20010904/DTD/svg10.dtd">
<svg version="1.0" xmlns="http://www.w3.org/2000/svg"
 width="24.000000pt" height="24.000000pt" viewBox="0 0 24.000000 24.000000"
 preserveAspectRatio="xMidYMid meet">

<g transform="translate(0.000000,24.000000) scale(0.100000,-0.100000)"
fill="#000000" stroke="none">
<path d="M86 207 c-38 -28 -13 -97 34 -97 28 0 53 25 53 55 0 30 -25 55 -53
55 -9 0 -24 -6 -34 -13z m59 -42 c0 -25 -4 -30 -25 -30 -16 0 -26 6 -28 18 -6
30 6 49 30 45 18 -2 23 -9 23 -33z"/>
<path d="M63 80 c-20 -12 -33 -28 -33 -40 0 -19 6 -20 90 -20 84 0 90 1 90 20
0 24 -54 60 -90 60 -14 0 -40 -9 -57 -20z m108 -20 l24 -19 -75 0 -75 0 24 19
c13 11 36 20 51 20 15 0 38 -9 51 -20z"/>
</g>
</svg>
